name C:\flash-running\Simulations\OCP\..\results\trackingSim\trackingSim_10-Nov-2020_kinematics.mot
datacolumns 32
datarows 16
range 1.47200000 1.58480000
endheader
time	pelvis_tilt	pelvis_list	pelvis_rotation	pelvis_tx	pelvis_ty	pelvis_tz	hip_flexion_l	hip_adduction_l	hip_rotation_l	hip_flexion_r	hip_adduction_r	hip_rotation_r	knee_angle_l	knee_angle_r	ankle_angle_l	ankle_angle_r	subtalar_angle_l	subtalar_angle_r	lumbar_extension	lumbar_bending	lumbar_rotation	arm_flex_l	arm_add_l	arm_rot_l	arm_flex_r	arm_add_r	arm_rot_r	elbow_flex_l	elbow_flex_r	pro_sup_l	pro_sup_r	
          1.47200000	          1.73624485	         -2.90768187	          6.44193938	         -0.30750624	          0.94793689	          0.23157893	        -15.05220353	         -2.98298906	         -0.05990886	         36.98663960	         -1.78809146	        -11.38668019	        -21.97411274	        -73.36234573	          3.96592085	         -1.13187574	         14.05854531	         -2.98021991	        -11.00425350	          2.31174540	        -11.53654578	        -12.88312662	        -28.66942070	          0.24613477	        -56.20812740	        -20.63193827	         -7.35215917	        127.79459459	         92.12629928	         86.51662706	         86.51662706	
          1.47952000	          1.35204273	         -3.68127268	          6.27741900	         -0.28556061	          0.95096769	          0.23214661	        -15.82931357	         -3.93940986	         -0.75961078	         37.27611172	         -0.95944049	        -11.91617805	        -21.23634817	        -69.59336891	          0.70718343	         -1.45447897	         13.73812563	         -2.49965346	         -9.93268149	          3.22006877	        -11.71925236	        -13.34282259	        -28.38384860	          0.12876587	        -58.08751634	        -20.25134042	         -8.08306602	        130.56521539	         92.20159147	         86.51662706	         86.51662706	
          1.48704000	          0.99908685	         -4.38541358	          6.10991076	         -0.26362081	          0.95387904	          0.23281565	        -16.55557051	         -4.81941087	         -1.46808536	         37.35162534	         -0.15354414	        -12.38856631	        -20.57380687	        -65.49347419	         -2.76158440	         -1.78041493	         13.35637898	         -1.88681373	         -8.93290344	          4.04133469	        -11.86173647	        -13.77781770	        -28.12081412	          0.08279315	        -59.73372681	        -19.85464865	         -8.81340373	        133.18879701	         92.39236004	         86.51662706	         86.51662706	
          1.49456000	          0.71173375	         -4.96276401	          5.95238619	         -0.24171836	          0.95665689	          0.23359246	        -17.27165438	         -5.56704431	         -2.12803432	         37.17718646	          0.58464150	        -12.76407392	        -19.96247026	        -61.08373135	         -6.47708038	         -2.08708463	         12.86986263	         -1.14639966	         -8.06565558	          4.70633609	        -11.97040445	        -14.20785890	        -27.86598859	          0.10810105	        -61.18588060	        -19.46111463	         -9.52452467	        135.57943148	         92.63292347	         86.51662706	         86.51662706	
          1.50208000	          0.48619292	         -5.40994162	          5.81630760	         -0.21986785	          0.95920132	          0.23445791	        -17.96718812	         -6.18258140	         -2.71046413	         36.76167782	          1.25221241	        -13.03031044	        -19.40191196	        -56.37442873	        -10.42918412	         -2.40265334	         12.27827775	         -0.27031755	         -7.33374667	          5.21040092	        -12.04030664	        -14.61447547	        -27.61015083	          0.19814928	        -62.56138869	        -19.11258154	        -10.20798990	        137.82225884	         92.97955609	         86.51662706	         86.51662706	
          1.50960000	          0.31370915	         -5.75530119	          5.70839078	         -0.19804897	          0.96142380	          0.23540335	        -18.64092614	         -6.70668527	         -3.23265932	         36.11164234	          1.87700317	        -13.19301260	        -18.87482255	        -51.38170115	        -14.60529004	         -2.76292017	         11.61760771	          0.74161231	         -6.72213546	          5.58625197	        -12.06818725	        -14.97789186	        -27.37032842	          0.33534093	        -63.89794835	        -18.81736941	        -10.84439158	        139.99714236	         93.46800523	         86.51662706	         86.51662706	
          1.51712000	          0.14217465	         -6.05451518	          5.61634904	         -0.17620998	          0.96319232	          0.23640727	        -19.25533364	         -7.19323153	         -3.73080996	         35.27177423	          2.50502762	        -13.28474748	        -18.35171524	        -46.10964306	        -18.92358263	         -3.14182298	         10.96226028	          1.88550064	         -6.15304452	          5.89894883	        -12.04814969	        -15.26621863	        -27.13897582	          0.50439110	        -65.21247838	        -18.61444159	        -11.43843170	        142.14704125	         94.19189648	         86.51662706	         86.51662706	
          1.52464000	          0.06663668	         -6.23305905	          5.53380606	         -0.15436465	          0.96465617	          0.23747393	        -19.80776628	         -7.56155587	         -4.11508729	         34.15678909	          3.07535211	        -13.26412240	        -18.24906455	        -40.67770096	        -22.52516655	         -3.50702834	          9.97062606	          3.11903948	         -5.74695784	          6.06979562	        -11.99385671	        -15.69309307	        -26.92431477	          0.69853182	        -66.24820824	        -18.42396090	        -11.94542207	        143.76485806	         94.79732211	         86.51662706	         86.51662706	
          1.53216000	          0.15723054	         -6.21857939	          5.46227372	         -0.13261396	          0.96589123	          0.23859607	        -20.27798026	         -7.72614165	         -4.27947140	         32.74298594	          3.51620690	        -13.09302179	        -18.86466148	        -35.26587274	        -24.64044194	         -3.80438486	          8.23208271	          4.37348224	         -5.60585043	          6.01994278	        -11.91683265	        -16.38098290	        -26.74978574	          0.90812633	        -66.74478908	        -18.16368542	        -12.32052904	        144.46427203	         94.96146059	         86.51662706	         86.51662706	
          1.53968000	          0.31005050	         -6.07702976	          5.39404932	         -0.11101522	          0.96664316	          0.23969078	        -20.58263235	         -7.74494456	         -4.23075406	         31.19952112	          3.84861729	        -12.82245011	        -20.04062834	        -29.98651749	        -25.26941708	         -4.03737979	          6.51892758	          5.62969121	         -5.60042220	          5.83057104	        -11.80468863	        -17.14605594	        -26.58436730	          1.12539602	        -66.88494321	        -17.93570212	        -12.60390923	        144.55385553	         94.94015879	         86.51662706	         86.51662706	
          1.54720000	          0.49888033	         -5.84242720	          5.32797851	         -0.08959998	          0.96683039	          0.24068618	        -20.71235970	         -7.64990401	         -3.98245785	         29.60985702	          4.07767288	        -12.48256577	        -21.72766322	        -24.96369343	        -24.41217694	         -4.27377940	          5.22120954	          6.86423958	         -5.69426265	          5.55241725	        -11.65167129	        -17.89382684	        -26.40881765	          1.34204754	        -66.84406894	        -17.79098302	        -12.81237902	        144.22490567	         94.86352347	         86.51662706	         86.51662706	
          1.55472000	          0.72226902	         -5.52576439	          5.26229770	         -0.06840896	          0.96644835	          0.24152613	        -20.69562438	         -7.43939932	         -3.56871657	         28.02608608	          4.19418957	        -12.09960568	        -23.78523380	        -20.31553077	        -23.07208896	         -4.52567274	          3.96233423	          8.04015650	         -5.88469441	          5.20801295	        -11.45294229	        -18.57825371	        -26.21185967	          1.54829520	        -66.72949103	        -17.74652803	        -12.95327527	        143.55606876	         94.79399313	         86.51662706	         86.51662706	
          1.56224000	          0.97246847	         -5.15214419	          5.19591106	         -0.04749511	          0.96550552	          0.24218115	        -20.54630760	         -7.13772407	         -3.03852846	         26.50361549	          4.20715505	        -11.70729639	        -26.08607016	        -16.14198598	        -22.21000416	         -4.79274257	          2.73522847	          9.12869830	         -6.16219350	          4.83134293	        -11.20860273	        -19.17481795	        -25.98856969	          1.73903287	        -66.55979171	        -17.79940172	        -13.03227835	        142.59260701	         94.77687564	         86.51662706	         86.51662706	
          1.56976000	          1.23986836	         -4.77320552	          5.12750076	         -0.02689253	          0.96400207	          0.24262642	        -20.26112474	         -6.78491269	         -2.40981721	         25.08978930	          4.15855466	        -11.33517304	        -28.62137099	        -12.50397993	        -21.57891344	         -5.07300407	          1.51839992	         10.11008406	         -6.51070020	          4.48721818	        -10.91771311	        -19.70357844	        -25.74456792	          1.91374141	        -66.31067155	        -17.93112195	        -13.05201321	        141.38423764	         94.81461069	         86.51662706	         86.51662706	
          1.57728000	          1.52038551	         -4.42802172	          5.05371091	         -0.00659757	          0.96194993	          0.24285449	        -19.84693818	         -6.41079019	         -1.70361372	         23.80943015	          4.08794054	        -10.99488088	        -31.37920406	         -9.42740138	        -20.92341525	         -5.30876607	          0.34571088	         10.94717234	         -6.91832717	          4.22276254	        -10.57879847	        -20.19762017	        -25.48745721	          2.07082361	        -65.95227022	        -18.12328499	        -13.01807796	        139.95945224	         94.87911862	         86.51662706	         86.51662706	
          1.58480000	          1.80172089	         -4.13680120	          4.97265966	          0.01340374	          0.95934204	          0.24287356	        -19.30549621	         -6.03532958	         -0.95974576	         22.69515586	          4.01644448	        -10.69361309	        -34.32532429	         -6.95242763	        -20.24221276	         -5.48816801	         -0.75513508	         11.61282594	         -7.36541811	          4.05851409	        -10.19668309	        -20.66166244	        -25.22225805	          2.20945278	        -65.45676960	        -18.36607221	        -12.94257095	        138.36537837	         94.97256446	         86.51662706	         86.51662706	
